<svg width="40" height="40" viewBox="0 0 40 40" fill="none" xmlns="http://www.w3.org/2000/svg">
<g filter="url(#filter0_d_1832_1827)">
<path d="M38.1816 15.6543L38.1816 34.5451C38.1816 35.5493 37.3676 36.3633 36.3635 36.3633L3.63619 36.3633C2.63203 36.3633 1.81801 35.5493 1.81801 34.5451L1.81801 15.6543C1.81801 15.1317 2.04289 14.6344 2.43528 14.2892L14.0303 4.08905C14.3622 3.79707 14.7891 3.63601 15.2312 3.63601L19.9998 3.63601L24.7685 3.63601C25.2105 3.63601 25.6375 3.79707 25.9694 4.08905L37.5644 14.2892C37.9568 14.6343 38.1816 15.1317 38.1816 15.6543Z" fill="url(#paint0_linear_1832_1827)"/>
</g>
<defs>
<filter id="filter0_d_1832_1827" x="-0.000310779" y="1.81756" width="40.0001" height="36.3639" filterUnits="userSpaceOnUse" color-interpolation-filters="sRGB">
<feFlood flood-opacity="0" result="BackgroundImageFix"/>
<feColorMatrix in="SourceAlpha" type="matrix" values="0 0 0 0 0 0 0 0 0 0 0 0 0 0 0 0 0 0 127 0" result="hardAlpha"/>
<feOffset/>
<feGaussianBlur stdDeviation="0.909091"/>
<feComposite in2="hardAlpha" operator="out"/>
<feColorMatrix type="matrix" values="0 0 0 0 0 0 0 0 0 0 0 0 0 0 0 0 0 0 0.25 0"/>
<feBlend mode="normal" in2="BackgroundImageFix" result="effect1_dropShadow_1832_1827"/>
<feBlend mode="normal" in="SourceGraphic" in2="effect1_dropShadow_1832_1827" result="shape"/>
</filter>
<linearGradient id="paint0_linear_1832_1827" x1="19.9998" y1="36.3633" x2="19.9998" y2="3.63601" gradientUnits="userSpaceOnUse">
<stop stop-color="#437F00"/>
<stop offset="1" stop-color="#97D74E"/>
</linearGradient>
</defs>
</svg>
